<?xml version="1.0" encoding="UTF-8"?>
<!DOCTYPE svg PUBLIC "-//W3C//DTD SVG 1.1//EN" "http://www.w3.org/Graphics/SVG/1.1/DTD/svg11.dtd">
<!-- Creator: CorelDRAW X6 -->
<svg xmlns="http://www.w3.org/2000/svg" xml:space="preserve" width="30mm" height="30mm" version="1.1" style="shape-rendering:geometricPrecision; text-rendering:geometricPrecision; image-rendering:optimizeQuality; fill-rule:evenodd; clip-rule:evenodd"
viewBox="0 0 4635 4630"
 xmlns:xlink="http://www.w3.org/1999/xlink">
 <defs>
  <style type="text/css">
   <![CDATA[
    .fil0 {fill:#336699;fill-rule:nonzero;fill-opacity:0.2}
   ]]>
  </style>
 </defs>
 <g id="Capa_x0020_1">
  <metadata id="CorelCorpID_0Corel-Layer"/>
  <g id="_770136672">
   <path class="fil0" d="M1196 2850l0 395 -93 0 0 -395 93 0zm244 0l0 395 -81 0 -48 -180 0 180 -77 0 0 -395 77 0 52 178 0 -178 77 0zm233 120l-86 0 0 -29c0,-14 -1,-22 -3,-26 -2,-4 -6,-6 -11,-6 -6,0 -10,2 -13,8 -3,5 -4,13 -4,23 0,13 2,23 5,30 3,7 12,15 26,24 41,27 67,50 78,67 11,17 16,45 16,84 0,28 -3,49 -9,62 -6,13 -17,24 -34,33 -17,9 -37,14 -59,14 -25,0 -46,-5 -63,-16 -17,-10 -29,-24 -34,-40 -5,-16 -8,-39 -8,-69l0 -26 86 0 0 48c0,15 1,24 4,29 2,4 7,6 13,6 6,0 11,-3 14,-8 3,-5 5,-13 5,-24 0,-23 -3,-38 -9,-46 -6,-7 -20,-19 -43,-36 -23,-17 -38,-29 -46,-37 -7,-8 -14,-18 -19,-32 -5,-13 -7,-31 -7,-52 0,-30 3,-52 10,-66 7,-14 18,-25 34,-33 16,-8 34,-12 56,-12 24,0 44,4 61,13 17,9 28,19 34,33 5,13 8,35 8,67l0 16zm209 -120l0 316 56 0 0 79 -149 0 0 -395 93 0zm250 0l53 395 -95 0 -5 -71 -33 0 -5 71 -96 0 47 -395 134 0zm-49 254c-4,-45 -9,-100 -14,-166 -9,76 -15,131 -17,166l31 0zm198 -254l93 0c25,0 45,2 58,7 14,4 24,11 31,19 7,8 11,18 14,30 2,12 4,30 4,55l0 34c0,25 -2,44 -7,55 -5,12 -13,20 -26,27 -13,6 -29,9 -49,9l-25 0 0 159 -93 0 0 -395zm93 67l0 101c3,0 5,0 7,0 8,0 14,-2 18,-7 3,-5 5,-14 5,-29l0 -33c0,-13 -2,-22 -6,-26 -4,-4 -12,-6 -24,-6zm226 -67l0 395 -93 0 0 -395 93 0zm244 0l0 395 -81 0 -48 -180 0 180 -77 0 0 -395 77 0 52 178 0 -178 77 0zm37 0l155 0 0 79 -62 0 0 75 58 0 0 75 -58 0 0 87 68 0 0 79 -161 0 0 -395zm187 0l69 0c45,0 75,2 91,7 16,5 28,12 36,22 8,10 13,22 15,35 2,13 3,38 3,75l0 138c0,35 -2,59 -5,71 -3,12 -8,21 -16,28 -8,7 -17,11 -28,14 -11,3 -28,4 -50,4l-117 0 0 -395zm93 67l0 260c13,0 21,-3 24,-9 3,-6 5,-22 5,-49l0 -154c0,-18 -1,-29 -2,-34 -1,-5 -3,-9 -7,-11 -4,-2 -10,-4 -20,-4zm316 -67l53 395 -95 0 -5 -71 -33 0 -5 71 -96 0 47 -395 134 0zm-49 254c-4,-45 -9,-100 -14,-166 -9,76 -15,131 -17,166l31 0z"/>
   <path class="fil0" d="M2044 4187l-3 0c-32,-6 -57,3 -74,26 -18,23 -32,67 -44,131 -12,65 -13,111 -5,139 8,28 28,44 60,50l4 1 62 -346zm111 -61l-89 501 -98 -17c-67,-12 -112,-39 -135,-81 -23,-42 -26,-106 -11,-191 16,-91 42,-154 79,-191 36,-37 86,-50 148,-39l106 19zm-351 -72l-163 482 -202 -68 26 -76 109 37 39 -115 -109 -37 25 -74 109 37 47 -139 -109 -37 26 -78 202 68zm-304 15l-87 -23c8,-20 11,-37 9,-52 -2,-15 -10,-26 -23,-33 -11,-7 -23,-8 -34,-4 -12,4 -21,13 -29,26 -7,12 -10,26 -9,41 1,15 8,41 21,78 18,51 28,90 29,118 1,28 -6,54 -19,77 -20,34 -46,56 -79,65 -33,9 -67,3 -101,-16 -33,-19 -55,-42 -65,-70 -10,-28 -10,-60 3,-95l84 16c-8,19 -11,35 -9,49 2,13 9,23 21,30 11,6 22,8 33,4 11,-3 20,-11 27,-23 12,-21 8,-58 -11,-110 -5,-13 -8,-22 -11,-29 -13,-39 -20,-71 -19,-97 0,-26 7,-51 21,-75 22,-39 51,-63 86,-73 35,-10 72,-4 109,18 33,19 55,44 65,76 10,31 7,66 -8,103zm-232 -275l-314 400 -168 -132 49 -63 91 71 75 -96 -91 -71 49 -62 91 71 90 -115 -91 -71 51 -64 168 132zm-226 -186l-384 333 -64 -74 139 -210c7,-10 19,-28 38,-54 18,-25 41,-56 69,-94l-4 -5c-41,47 -78,87 -111,121 -33,34 -58,59 -76,75l-113 98 -58 -67 384 -333 63 73 -128 198c-2,3 -5,8 -9,14 -36,55 -69,101 -99,138l4 4c41,-46 79,-86 112,-121 34,-35 63,-62 87,-83l94 -81 58 67zm-311 -421l52 90 -396 332 -51 -89 142 -104c32,-24 64,-46 95,-68 31,-21 62,-42 92,-62l-3 -5c-47,23 -87,42 -121,58 -34,16 -62,28 -83,36l-167 67 -47 -83 487 -173zm-331 -102c65,-26 108,-47 130,-63 22,-16 30,-33 23,-49 -7,-17 -23,-23 -50,-20 -27,3 -73,17 -138,43 -64,25 -107,46 -129,63 -22,17 -30,33 -24,50 7,17 23,23 50,20 27,-3 73,-17 138,-43zm-61 -189c79,-31 143,-43 192,-35 48,8 82,35 100,82 19,48 13,91 -19,129 -31,38 -88,74 -172,107 -84,33 -150,46 -199,39 -49,-7 -83,-34 -101,-82 -19,-49 -13,-92 19,-130 32,-38 92,-75 181,-110zm217 -161l-501 89 -17 -97 420 -75 -20 -113 81 -14 38 210zm-208 -254l-341 9 -2 -98 342 -9c36,-1 61,-5 74,-11 13,-7 19,-17 19,-33 0,-15 -7,-26 -21,-32 -13,-6 -38,-8 -74,-8l-342 9 -2 -98 341 -9c60,-2 105,9 135,31 29,22 45,57 46,105 1,48 -12,84 -41,107 -28,23 -72,36 -133,37zm172 -366l-501 -89 20 -113c9,-51 30,-86 62,-106 32,-20 77,-25 133,-15 53,9 91,31 116,64 25,33 33,74 24,124l-2 9 164 29 -17 97zm-409 -173l185 33 1 -4c4,-21 -1,-38 -15,-52 -14,-14 -36,-23 -67,-29 -30,-5 -54,-4 -70,4 -17,8 -28,24 -33,47zm348 -263l26 -67 -158 -37c-13,-3 -28,-8 -47,-13 -19,-6 -40,-13 -63,-20l-2 6c26,13 49,24 68,34 19,10 32,16 37,19l139 79zm101 180l-431 -294 39 -99 514 82 -38 96 -82 -17 -37 94 71 46 -36 92zm143 -361l-428 -274 60 -94 231 84c21,7 40,15 56,21 16,7 32,14 47,21l3 -4c-16,-14 -31,-27 -44,-40 -13,-12 -24,-23 -33,-33l-173 -185 59 -92 428 274 -49 77 -146 -95c-28,-18 -57,-39 -89,-62 -32,-24 -65,-50 -101,-80l-3 5c27,25 49,46 69,65 19,18 33,32 42,41l140 146 -41 64 -201 -72c-19,-7 -39,-14 -61,-23 -21,-8 -45,-18 -70,-29l-3 5c45,22 85,43 121,62 36,19 65,36 88,51l149 91 -48 75zm267 -382l-351 -368 155 -147 55 58 -83 79 84 88 83 -79 54 57 -83 79 101 106 83 -79 56 59 -155 147zm215 -200l-295 -414 80 -57 195 159c10,8 26,22 50,43 23,21 52,47 86,78l5 -4c-42,-46 -79,-86 -110,-122 -31,-36 -54,-63 -67,-82l-87 -122 73 -52 295 414 -79 56 -185 -147c-3,-2 -7,-6 -13,-11 -52,-41 -94,-78 -128,-112l-5 3c42,45 78,86 109,123 31,37 56,68 75,94l72 101 -73 52zm343 -214l-174 -386 -71 32 -35 -78 232 -105 35 78 -72 32 174 386 -90 41zm423 -148l-150 -494 100 -13 44 184c6,25 13,57 22,97 9,40 18,84 27,131l7 -1c-3,-56 -6,-107 -8,-152 -2,-45 -3,-77 -3,-94l2 -178 94 -12 48 195c7,30 15,63 23,100 8,37 16,76 24,118l6 -1c-3,-45 -5,-89 -7,-131 -2,-42 -3,-82 -3,-119l0 -174 95 -12 -24 516 -101 13 -51 -204c-11,-44 -20,-82 -27,-113 -7,-32 -13,-63 -18,-93l-6 1c1,47 2,90 3,128 1,38 1,66 1,86l1 209 -100 13zm437 -31l39 -507 213 16 -6 80 -115 -9 -9 121 115 9 -6 78 -115 -9 -11 146 115 9 -6 82 -213 -16zm467 -239c2,1 4,2 6,3 2,1 5,2 9,3 21,6 39,5 54,-2 15,-7 25,-21 31,-40 6,-20 4,-36 -6,-51 -9,-14 -25,-24 -48,-31 -1,0 -3,-1 -6,-1 -3,-1 -5,-1 -6,-1l-34 121zm-63 221c1,0 3,1 6,2 2,1 4,2 5,2 26,7 47,7 65,-2 17,-9 29,-24 36,-48 7,-25 6,-46 -5,-62 -10,-17 -28,-29 -55,-36l-10 -3 -42 147zm-113 50l139 -489 122 35c48,14 82,34 101,61 19,27 23,60 12,99 -8,28 -22,49 -42,62 -20,14 -45,20 -74,18 29,17 48,38 58,64 10,25 10,55 1,88 -12,43 -36,74 -70,92 -34,18 -75,20 -122,7l-125 -35zm495 181l274 -428 180 115 -43 67 -97 -62 -66 103 97 62 -42 66 -97 -62 -79 123 97 62 -44 69 -180 -115zm244 162l333 -384 74 64 -108 227c-5,11 -15,31 -30,58 -14,28 -33,62 -55,102l5 4c34,-52 65,-97 93,-136 28,-39 49,-67 64,-85l98 -113 67 58 -333 384 -73 -63 99 -214c1,-3 4,-8 7,-15 27,-60 53,-110 78,-151l-4 -4c-34,51 -65,96 -94,135 -28,39 -53,71 -74,95l-81 94 -67 -58zm365 380l428 -274 115 180 -67 43 -62 -97 -103 66 62 97 -66 42 -62 -97 -123 79 62 97 -69 44 -115 -180zm154 250l473 -187 36 91 -201 152c-10,8 -28,20 -53,38 -26,18 -58,40 -96,65l2 6c54,-30 103,-56 145,-78 42,-22 74,-37 96,-45l139 -55 33 83 -473 187 -35 -90 187 -144c3,-2 7,-5 13,-10 52,-40 98,-73 139,-97l-2 -5c-54,30 -103,55 -146,77 -43,21 -80,38 -110,50l-115 45 -33 -83zm131 382l412 -95 -18 -76 83 -19 57 248 -83 19 -18 -77 -412 95 -22 -96zm303 304c-70,2 -117,7 -143,14 -26,8 -39,21 -39,38 0,18 14,30 40,36 26,7 74,9 144,7 68,-2 116,-7 143,-15 27,-8 40,-21 40,-38 0,-18 -14,-30 -40,-36 -26,-7 -74,-9 -145,-7zm-8 199c-85,2 -149,-9 -192,-33 -43,-24 -65,-61 -66,-111 -1,-51 19,-89 62,-115 42,-25 109,-39 199,-42 90,-2 157,8 201,31 44,23 66,60 67,112 1,52 -19,91 -62,116 -43,25 -112,39 -208,41zm-248 78l501 89 -22 121c-9,53 -28,90 -57,113 -29,23 -66,30 -112,22 -32,-6 -58,-18 -77,-35 -19,-18 -31,-41 -35,-68l-250 49 18 -101 251 -42 2 -9 -236 -42 17 -95zm269 146c0,1 -1,3 -1,6 -1,2 -1,4 -1,6 -4,25 -2,45 9,61 10,16 26,26 49,30 23,4 41,0 55,-11 14,-11 23,-30 28,-56l2 -10 -140 -25zm-337 205l473 187 -36 91 -250 -26c-12,-1 -34,-4 -65,-9 -31,-4 -69,-10 -115,-18l-2 6c60,15 113,29 159,43 46,13 80,24 101,32l139 55 -33 83 -473 -187 35 -90 235 22c3,0 9,1 17,2 65,6 121,14 168,24l2 -5c-60,-15 -113,-30 -159,-44 -46,-14 -84,-27 -114,-38l-115 -45 33 -83zm-292 786c-33,-35 -51,-71 -55,-106 -4,-35 7,-69 32,-102 31,-40 71,-56 120,-49 49,7 108,38 178,93 72,57 117,109 135,156 18,47 10,92 -23,135 -24,30 -51,48 -82,53 -31,5 -67,-3 -106,-23l32 -91c23,15 42,23 56,25 15,1 27,-4 36,-16 12,-16 11,-35 -5,-58 -16,-23 -51,-56 -107,-100 -54,-42 -93,-68 -118,-77 -25,-9 -43,-6 -55,9 -9,11 -10,25 -3,42 7,17 22,36 45,58l-81 52zm-150 -44l351 368 -71 68 -294 -309 -83 79 -56 -59 155 -147zm-278 233l80 -57 295 414 -80 57 -295 -414zm-68 50l232 453 -190 97 -36 -71 102 -52 -56 -108 -102 52 -36 -70 102 -52 -67 -130 -102 52 -37 -73 190 -97zm-262 131l163 482 -93 31 -141 -208c-7,-10 -19,-29 -35,-55 -17,-26 -37,-60 -60,-99l-6 2c27,56 51,106 70,149 19,43 33,76 40,98l48 142 -84 29 -163 -482 92 -31 134 194c2,3 5,7 10,14 38,54 68,102 90,144l5 -2c-27,-55 -50,-105 -69,-149 -19,-44 -34,-82 -44,-112l-40 -117 84 -29zm-390 108l53 420 77 -10 11 85 -253 32 -11 -85 78 -10 -53 -420 98 -12z"/>
   <path class="fil0" d="M1108 1631l205 0c132,0 221,6 268,18 47,12 82,32 106,60 24,28 39,59 45,93 6,34 9,101 9,201l0 369c0,95 -4,158 -13,189 -9,32 -24,57 -46,75 -22,18 -49,30 -82,38 -32,7 -81,11 -147,11l-345 0 0 -1053zm274 180l0 694c39,0 63,-8 72,-24 9,-16 14,-59 14,-129l0 -410c0,-48 -2,-78 -4,-92 -3,-14 -10,-23 -21,-30 -11,-6 -31,-10 -60,-10zm934 -180l157 1053 -280 0 -15 -189 -99 0 -15 189 -283 0 139 -1053 396 0zm-145 678c-13,-119 -27,-267 -41,-443 -27,202 -44,350 -51,443l93 0zm1355 -678l-122 1053 -341 0c-31,-162 -58,-346 -83,-553 -11,89 -37,273 -77,553l-339 0 -123 -1053 266 0 29 368 28 355c10,-184 36,-425 76,-723l284 0c3,31 13,147 29,348l31 401c16,-255 42,-504 77,-749l266 0z"/>
  </g>
 </g>
</svg>
